<mxfile host="app.diagrams.net" agent="Mozilla/5.0 (Windows NT 10.0; Win64; x64) AppleWebKit/537.36 (KHTML, like Gecko) Chrome/129.0.0.0 Safari/537.36" version="24.7.17">
  <diagram name="Page-1" id="c7488fd3-1785-93aa-aadb-54a6760d102a">
    <mxGraphModel dx="814" dy="515" grid="0" gridSize="10" guides="1" tooltips="1" connect="1" arrows="1" fold="1" page="1" pageScale="1" pageWidth="1100" pageHeight="850" background="none" math="0" shadow="0">
      <root>
        <mxCell id="0" />
        <mxCell id="1" parent="0" />
        <mxCell id="b9uBkOphKhD5eRVLnkFg-5" style="edgeStyle=orthogonalEdgeStyle;rounded=0;html=1;labelBackgroundColor=none;startArrow=none;startFill=0;startSize=5;endArrow=classicThin;endFill=1;endSize=5;jettySize=auto;orthogonalLoop=1;strokeWidth=1;fontFamily=Verdana;fontSize=8" parent="1" source="b9uBkOphKhD5eRVLnkFg-6" target="b9uBkOphKhD5eRVLnkFg-7" edge="1">
          <mxGeometry relative="1" as="geometry" />
        </mxCell>
        <mxCell id="b9uBkOphKhD5eRVLnkFg-6" value="Start" style="ellipse;whiteSpace=wrap;html=1;rounded=0;shadow=0;labelBackgroundColor=none;strokeWidth=1;fontFamily=Verdana;fontSize=8;align=center;" parent="1" vertex="1">
          <mxGeometry x="280" y="80" width="30" height="30" as="geometry" />
        </mxCell>
        <mxCell id="b9uBkOphKhD5eRVLnkFg-7" value="Initialize i = 0" style="rounded=1;whiteSpace=wrap;html=1;shadow=0;labelBackgroundColor=none;strokeWidth=1;fontFamily=Verdana;fontSize=8;align=center;" parent="1" vertex="1">
          <mxGeometry x="260" y="139.99999999999997" width="70" height="37" as="geometry" />
        </mxCell>
        <mxCell id="b9uBkOphKhD5eRVLnkFg-14" style="edgeStyle=orthogonalEdgeStyle;rounded=0;html=1;labelBackgroundColor=none;startArrow=none;startFill=0;startSize=5;endArrow=classicThin;endFill=1;endSize=5;jettySize=auto;orthogonalLoop=1;strokeWidth=1;fontFamily=Verdana;fontSize=8" parent="1" source="b9uBkOphKhD5eRVLnkFg-15" target="b9uBkOphKhD5eRVLnkFg-16" edge="1">
          <mxGeometry relative="1" as="geometry" />
        </mxCell>
        <mxCell id="b9uBkOphKhD5eRVLnkFg-15" value="Is st[i] != 0x00?" style="rounded=1;whiteSpace=wrap;html=1;shadow=0;labelBackgroundColor=none;strokeWidth=1;fontFamily=Verdana;fontSize=8;align=center;" parent="1" vertex="1">
          <mxGeometry x="260" y="213.49999999999994" width="70" height="37" as="geometry" />
        </mxCell>
        <mxCell id="b9uBkOphKhD5eRVLnkFg-16" value="" style="strokeWidth=1;html=1;shape=mxgraph.flowchart.decision;whiteSpace=wrap;rounded=1;shadow=0;labelBackgroundColor=none;fontFamily=Verdana;fontSize=8;align=center;" parent="1" vertex="1">
          <mxGeometry x="380.5" y="216.9999999999999" width="30" height="30" as="geometry" />
        </mxCell>
        <mxCell id="b9uBkOphKhD5eRVLnkFg-17" style="edgeStyle=orthogonalEdgeStyle;rounded=0;html=1;labelBackgroundColor=none;startArrow=none;startFill=0;startSize=5;endArrow=classicThin;endFill=1;endSize=5;jettySize=auto;orthogonalLoop=1;strokeWidth=1;fontFamily=Verdana;fontSize=8" parent="1" source="b9uBkOphKhD5eRVLnkFg-7" target="b9uBkOphKhD5eRVLnkFg-15" edge="1">
          <mxGeometry relative="1" as="geometry" />
        </mxCell>
        <mxCell id="b9uBkOphKhD5eRVLnkFg-19" value="Yes" style="edgeStyle=orthogonalEdgeStyle;rounded=0;html=1;labelBackgroundColor=none;startArrow=none;startFill=0;startSize=5;endArrow=classicThin;endFill=1;endSize=5;jettySize=auto;orthogonalLoop=1;strokeWidth=1;fontFamily=Verdana;fontSize=8" parent="1" source="b9uBkOphKhD5eRVLnkFg-16" target="b9uBkOphKhD5eRVLnkFg-23" edge="1">
          <mxGeometry x="-1" y="12" relative="1" as="geometry">
            <mxPoint y="-2" as="offset" />
          </mxGeometry>
        </mxCell>
        <mxCell id="b9uBkOphKhD5eRVLnkFg-22" style="edgeStyle=orthogonalEdgeStyle;rounded=0;html=1;labelBackgroundColor=none;startArrow=none;startFill=0;startSize=5;endArrow=classicThin;endFill=1;endSize=5;jettySize=auto;orthogonalLoop=1;strokeWidth=1;fontFamily=Verdana;fontSize=8;" parent="1" source="b9uBkOphKhD5eRVLnkFg-23" target="b9uBkOphKhD5eRVLnkFg-25" edge="1">
          <mxGeometry relative="1" as="geometry" />
        </mxCell>
        <mxCell id="b9uBkOphKhD5eRVLnkFg-23" value="Is USARTport == 1?" style="rounded=1;whiteSpace=wrap;html=1;shadow=0;labelBackgroundColor=none;strokeWidth=1;fontFamily=Verdana;fontSize=8;align=center;" parent="1" vertex="1">
          <mxGeometry x="351" y="370.5" width="89" height="37" as="geometry" />
        </mxCell>
        <mxCell id="b9uBkOphKhD5eRVLnkFg-24" value="Yes" style="edgeStyle=orthogonalEdgeStyle;rounded=0;html=1;labelBackgroundColor=none;startArrow=none;startFill=0;startSize=5;endArrow=classicThin;endFill=1;endSize=5;jettySize=auto;orthogonalLoop=1;strokeWidth=1;fontFamily=Verdana;fontSize=8" parent="1" source="b9uBkOphKhD5eRVLnkFg-25" edge="1">
          <mxGeometry x="-0.5006" y="6" relative="1" as="geometry">
            <mxPoint as="offset" />
            <mxPoint x="555" y="389" as="targetPoint" />
          </mxGeometry>
        </mxCell>
        <mxCell id="b9uBkOphKhD5eRVLnkFg-25" value="" style="strokeWidth=1;html=1;shape=mxgraph.flowchart.decision;whiteSpace=wrap;rounded=1;shadow=0;labelBackgroundColor=none;fontFamily=Verdana;fontSize=8;align=center;" parent="1" vertex="1">
          <mxGeometry x="470" y="374.00000000000006" width="30" height="30" as="geometry" />
        </mxCell>
        <mxCell id="b9uBkOphKhD5eRVLnkFg-29" value="End" style="ellipse;whiteSpace=wrap;html=1;rounded=0;shadow=0;labelBackgroundColor=none;strokeWidth=2;fontFamily=Verdana;fontSize=8;align=center;" parent="1" vertex="1">
          <mxGeometry x="380.5" y="125" width="30" height="30" as="geometry" />
        </mxCell>
        <mxCell id="H0oVASNlkaPm-VglckJS-3" value="No" style="edgeStyle=orthogonalEdgeStyle;rounded=0;html=1;labelBackgroundColor=none;startArrow=none;startFill=0;startSize=5;endArrow=classicThin;endFill=1;endSize=5;jettySize=auto;orthogonalLoop=1;strokeWidth=1;fontFamily=Verdana;fontSize=8;entryX=0.5;entryY=1;entryDx=0;entryDy=0;exitX=0.5;exitY=0;exitDx=0;exitDy=0;exitPerimeter=0;" parent="1" target="b9uBkOphKhD5eRVLnkFg-29" edge="1" source="b9uBkOphKhD5eRVLnkFg-16">
          <mxGeometry x="-0.9908" y="-15" relative="1" as="geometry">
            <mxPoint as="offset" />
            <mxPoint x="404.71" y="217" as="sourcePoint" />
            <mxPoint x="404.71" y="167" as="targetPoint" />
            <Array as="points" />
          </mxGeometry>
        </mxCell>
        <mxCell id="H0oVASNlkaPm-VglckJS-4" value="No" style="edgeStyle=orthogonalEdgeStyle;rounded=0;html=1;labelBackgroundColor=none;startArrow=none;startFill=0;startSize=5;endArrow=classicThin;endFill=1;endSize=5;jettySize=auto;orthogonalLoop=1;strokeWidth=1;fontFamily=Verdana;fontSize=8;exitX=0.5;exitY=1;exitDx=0;exitDy=0;exitPerimeter=0;entryX=-0.006;entryY=0.534;entryDx=0;entryDy=0;entryPerimeter=0;" parent="1" source="b9uBkOphKhD5eRVLnkFg-25" edge="1" target="H0oVASNlkaPm-VglckJS-5">
          <mxGeometry x="-1" y="16" relative="1" as="geometry">
            <mxPoint x="-1" y="-4" as="offset" />
            <mxPoint x="490" y="425" as="sourcePoint" />
            <mxPoint x="553" y="440" as="targetPoint" />
            <Array as="points">
              <mxPoint x="485" y="440" />
            </Array>
          </mxGeometry>
        </mxCell>
        <mxCell id="H0oVASNlkaPm-VglckJS-5" value="Is USARTport == 2?" style="rounded=1;whiteSpace=wrap;html=1;shadow=0;labelBackgroundColor=none;strokeWidth=1;fontFamily=Verdana;fontSize=8;align=center;" parent="1" vertex="1">
          <mxGeometry x="556" y="420" width="94" height="37" as="geometry" />
        </mxCell>
        <mxCell id="H0oVASNlkaPm-VglckJS-6" value="" style="strokeWidth=1;html=1;shape=mxgraph.flowchart.decision;whiteSpace=wrap;rounded=1;shadow=0;labelBackgroundColor=none;fontFamily=Verdana;fontSize=8;align=center;" parent="1" vertex="1">
          <mxGeometry x="680" y="420.00000000000006" width="30" height="30" as="geometry" />
        </mxCell>
        <mxCell id="H0oVASNlkaPm-VglckJS-7" style="edgeStyle=orthogonalEdgeStyle;rounded=0;html=1;labelBackgroundColor=none;startArrow=none;startFill=0;startSize=5;endArrow=classicThin;endFill=1;endSize=5;jettySize=auto;orthogonalLoop=1;strokeWidth=1;fontFamily=Verdana;fontSize=8;" parent="1" edge="1">
          <mxGeometry relative="1" as="geometry">
            <mxPoint x="650" y="434.9" as="sourcePoint" />
            <mxPoint x="680" y="434.9" as="targetPoint" />
          </mxGeometry>
        </mxCell>
        <mxCell id="H0oVASNlkaPm-VglckJS-8" value="No" style="edgeStyle=orthogonalEdgeStyle;rounded=0;html=1;labelBackgroundColor=none;startArrow=none;startFill=0;startSize=5;endArrow=classicThin;endFill=1;endSize=5;jettySize=auto;orthogonalLoop=1;strokeWidth=1;fontFamily=Verdana;fontSize=8;exitX=0.497;exitY=-0.021;exitDx=0;exitDy=0;exitPerimeter=0;" parent="1" source="H0oVASNlkaPm-VglckJS-6" edge="1">
          <mxGeometry x="-0.9529" y="-9" relative="1" as="geometry">
            <mxPoint as="offset" />
            <mxPoint x="697" y="418.5" as="sourcePoint" />
            <mxPoint x="797" y="250.5" as="targetPoint" />
            <Array as="points">
              <mxPoint x="695" y="389" />
              <mxPoint x="797" y="389" />
            </Array>
          </mxGeometry>
        </mxCell>
        <mxCell id="H0oVASNlkaPm-VglckJS-9" value="Yes" style="edgeStyle=orthogonalEdgeStyle;rounded=0;html=1;entryX=0;entryY=0.5;labelBackgroundColor=none;startArrow=none;startFill=0;startSize=5;endArrow=classicThin;endFill=1;endSize=5;jettySize=auto;orthogonalLoop=1;strokeWidth=1;fontFamily=Verdana;fontSize=8" parent="1" edge="1">
          <mxGeometry x="-0.5006" y="6" relative="1" as="geometry">
            <mxPoint as="offset" />
            <mxPoint x="710" y="434.8" as="sourcePoint" />
            <mxPoint x="790" y="434.8" as="targetPoint" />
          </mxGeometry>
        </mxCell>
        <mxCell id="H0oVASNlkaPm-VglckJS-14" style="edgeStyle=orthogonalEdgeStyle;rounded=0;orthogonalLoop=1;jettySize=auto;html=1;endSize=5;startSize=5;entryX=1.002;entryY=0.578;entryDx=0;entryDy=0;entryPerimeter=0;exitX=1;exitY=0.5;exitDx=0;exitDy=0;" parent="1" source="H0oVASNlkaPm-VglckJS-10" target="H0oVASNlkaPm-VglckJS-12" edge="1">
          <mxGeometry relative="1" as="geometry">
            <mxPoint x="838" y="280" as="targetPoint" />
            <Array as="points">
              <mxPoint x="879" y="435" />
              <mxPoint x="879" y="434" />
              <mxPoint x="925" y="434" />
              <mxPoint x="925" y="235" />
            </Array>
            <mxPoint x="879.0133333333333" y="414.75" as="sourcePoint" />
          </mxGeometry>
        </mxCell>
        <mxCell id="H0oVASNlkaPm-VglckJS-10" value="USART2-&amp;gt;DR = st[i]" style="rounded=1;whiteSpace=wrap;html=1;shadow=0;labelBackgroundColor=none;strokeWidth=1;fontFamily=Verdana;fontSize=8;align=center;" parent="1" vertex="1">
          <mxGeometry x="790" y="416.5" width="96" height="37" as="geometry" />
        </mxCell>
        <mxCell id="H0oVASNlkaPm-VglckJS-13" style="edgeStyle=orthogonalEdgeStyle;rounded=0;orthogonalLoop=1;jettySize=auto;html=1;endArrow=classicThin;endFill=1;endSize=5;startSize=5;entryX=0.25;entryY=1;entryDx=0;entryDy=0;" parent="1" source="H0oVASNlkaPm-VglckJS-11" target="H0oVASNlkaPm-VglckJS-12" edge="1">
          <mxGeometry relative="1" as="geometry">
            <mxPoint x="680" y="260" as="targetPoint" />
            <Array as="points">
              <mxPoint x="680" y="389" />
              <mxPoint x="680" y="312" />
              <mxPoint x="719" y="312" />
            </Array>
          </mxGeometry>
        </mxCell>
        <mxCell id="H0oVASNlkaPm-VglckJS-11" value="USART1-&amp;gt;DR = st[i]" style="rounded=1;whiteSpace=wrap;html=1;shadow=0;labelBackgroundColor=none;strokeWidth=1;fontFamily=Verdana;fontSize=8;align=center;" parent="1" vertex="1">
          <mxGeometry x="556" y="370.5" width="94" height="37" as="geometry" />
        </mxCell>
        <mxCell id="H0oVASNlkaPm-VglckJS-16" style="edgeStyle=orthogonalEdgeStyle;rounded=0;orthogonalLoop=1;jettySize=auto;html=1;entryX=1;entryY=0.5;entryDx=0;entryDy=0;endSize=5;startSize=5;" parent="1" source="H0oVASNlkaPm-VglckJS-12" target="H0oVASNlkaPm-VglckJS-15" edge="1">
          <mxGeometry relative="1" as="geometry" />
        </mxCell>
        <mxCell id="H0oVASNlkaPm-VglckJS-12" value="Wait while !((USART1-&amp;gt;SR&amp;gt;&amp;gt;7)&amp;amp;0x1)" style="rounded=1;whiteSpace=wrap;html=1;shadow=0;labelBackgroundColor=none;strokeWidth=1;fontFamily=Verdana;fontSize=8;align=center;" parent="1" vertex="1">
          <mxGeometry x="680" y="213.5" width="157" height="37" as="geometry" />
        </mxCell>
        <mxCell id="H0oVASNlkaPm-VglckJS-15" value="Is i == 255?" style="rounded=1;whiteSpace=wrap;html=1;shadow=0;labelBackgroundColor=none;strokeWidth=1;fontFamily=Verdana;fontSize=8;align=center;" parent="1" vertex="1">
          <mxGeometry x="598" y="213.5" width="56" height="37" as="geometry" />
        </mxCell>
        <mxCell id="H0oVASNlkaPm-VglckJS-17" value="" style="strokeWidth=1;html=1;shape=mxgraph.flowchart.decision;whiteSpace=wrap;rounded=1;shadow=0;labelBackgroundColor=none;fontFamily=Verdana;fontSize=8;align=center;" parent="1" vertex="1">
          <mxGeometry x="550" y="217.00000000000006" width="30" height="30" as="geometry" />
        </mxCell>
        <mxCell id="H0oVASNlkaPm-VglckJS-19" value="Yes" style="edgeStyle=orthogonalEdgeStyle;rounded=0;html=1;labelBackgroundColor=none;startArrow=none;startFill=0;startSize=5;endArrow=classicThin;endFill=1;endSize=5;jettySize=auto;orthogonalLoop=1;strokeWidth=1;fontFamily=Verdana;fontSize=8;exitX=0.5;exitY=0;exitDx=0;exitDy=0;exitPerimeter=0;entryX=1;entryY=0.5;entryDx=0;entryDy=0;" parent="1" source="H0oVASNlkaPm-VglckJS-17" target="b9uBkOphKhD5eRVLnkFg-29" edge="1">
          <mxGeometry x="-0.9136" y="-12" relative="1" as="geometry">
            <mxPoint as="offset" />
            <mxPoint x="530" y="173.5" as="sourcePoint" />
            <mxPoint x="530" y="297.5" as="targetPoint" />
          </mxGeometry>
        </mxCell>
        <mxCell id="H0oVASNlkaPm-VglckJS-22" value="Is st[i] != 0x00?" style="rounded=1;whiteSpace=wrap;html=1;shadow=0;labelBackgroundColor=none;strokeWidth=1;fontFamily=Verdana;fontSize=8;align=center;" parent="1" vertex="1">
          <mxGeometry x="445" y="213.5" width="75" height="37" as="geometry" />
        </mxCell>
        <mxCell id="H0oVASNlkaPm-VglckJS-23" style="edgeStyle=orthogonalEdgeStyle;rounded=0;orthogonalLoop=1;jettySize=auto;html=1;entryX=1;entryY=0.5;entryDx=0;entryDy=0;entryPerimeter=0;endSize=5;startSize=5;" parent="1" source="H0oVASNlkaPm-VglckJS-22" target="b9uBkOphKhD5eRVLnkFg-16" edge="1">
          <mxGeometry relative="1" as="geometry" />
        </mxCell>
        <mxCell id="H0oVASNlkaPm-VglckJS-25" value="No" style="edgeStyle=orthogonalEdgeStyle;rounded=0;html=1;labelBackgroundColor=none;startArrow=none;startFill=0;startSize=5;endArrow=classicThin;endFill=1;endSize=5;jettySize=auto;orthogonalLoop=1;strokeWidth=1;fontFamily=Verdana;fontSize=8;entryX=1;entryY=0.5;entryDx=0;entryDy=0;" parent="1" source="H0oVASNlkaPm-VglckJS-17" target="H0oVASNlkaPm-VglckJS-22" edge="1">
          <mxGeometry x="-0.76" y="-8" relative="1" as="geometry">
            <mxPoint as="offset" />
            <mxPoint x="520" y="207" as="sourcePoint" />
            <mxPoint x="520" y="230" as="targetPoint" />
          </mxGeometry>
        </mxCell>
        <mxCell id="Nn6MCb6ZcGbOYUTjjnC--1" style="edgeStyle=orthogonalEdgeStyle;rounded=0;orthogonalLoop=1;jettySize=auto;html=1;entryX=0.961;entryY=0.489;entryDx=0;entryDy=0;entryPerimeter=0;endSize=5;startSize=5;" edge="1" parent="1" source="H0oVASNlkaPm-VglckJS-15" target="H0oVASNlkaPm-VglckJS-17">
          <mxGeometry relative="1" as="geometry" />
        </mxCell>
      </root>
    </mxGraphModel>
  </diagram>
</mxfile>
